<?xml version="1.0" encoding="utf-8"?>
<!-- Generator: Adobe Illustrator 22.0.0, SVG Export Plug-In . SVG Version: 6.00 Build 0)  -->
<svg version="1.1" id="Calque_1" xmlns="http://www.w3.org/2000/svg" xmlns:xlink="http://www.w3.org/1999/xlink" x="0px" y="0px"
	 viewBox="0 0 500 500" style="enable-background:new 0 0 500 500;" xml:space="preserve">
<style type="text/css">
	.st0{fill:#02BCC1;}
	.st1{fill:#553B49;}
	.st2{font-family:'ScriptoramaJF-Tradeshow';}
	.st3{font-size:83.04px;}
	.st4{fill:none;}
	.st5{fill:#E0E0E0;}
</style>
<g>
	<polygon class="st0" points="164.5,398.1 79,250 164.5,101.9 335.5,101.9 421,250 335.5,398.1 	"/>
	<g>
		<path class="st1" d="M334.5,103.6L419,250l-84.5,146.4h-169L81,250l84.5-146.4H334.5 M336.5,100.2h-173L77,250l86.5,149.8h173
			L423,250L336.5,100.2L336.5,100.2z"/>
	</g>
</g>
<g>
	<polygon class="st1" points="100.2,163.5 100.2,336.5 250,423 399.8,336.5 399.8,163.5 250,77 	"/>
</g>
<text transform="matrix(1 0 0 1 128.9004 271.7227)" class="st0 st2 st3">Playpal</text>
<g>
	<path class="st4" d="M241,338.3l0.2-0.1c-0.1,0.1-0.1,0.3-0.1,0.4l1.5,31.5l-1.5-31.3C241.1,338.7,241.1,338.5,241,338.3z"/>
	<g>
		<path class="st5" d="M241,338.2c-1.5-3.3-14.7-12.4-15.5-12.9c-0.2-0.1-0.3-0.2-0.5-0.2c1.3-1.8,9.4-2.8,15.8-3.6l2.7-0.4
			c4.5-0.6,8.3-1.1,9.8-1.1c0.2,0,0.4,0,0.5,0c2.4,0.4,17.8,5,20.7,7.4c-0.3-0.2-0.7-0.3-1.1-0.3c-1.2,0.3-30.4,7.1-32.4,10.9
			L241,338.2z"/>
		<g>
			<path d="M253.4,320.2c0.2,0,0.4,0,0.5,0c2.3,0.4,16.8,4.6,20.4,7.2c-0.2-0.1-0.5-0.1-0.7-0.1c0,0,0,0,0,0
				c-1.2,0.3-30.2,7-32.4,10.9l-0.1,0c-1.6-3.4-14.7-12.4-15.5-12.9c-0.1-0.1-0.3-0.1-0.4-0.2c1.5-1.7,9.7-2.8,15.7-3.5
				c0.9-0.1,1.8-0.2,2.7-0.3C248,320.7,251.8,320.2,253.4,320.2 M253.4,320.1c-1.9,0-7,0.7-12.6,1.4c-7.1,0.9-14.8,1.9-15.9,3.8
				c0,0,0.1,0,0.1,0c0.1,0,0.3,0,0.5,0.2c1,0.6,14.2,9.6,15.5,12.9l0.2-0.1c2-3.9,32.3-10.9,32.3-10.9c0.6,0,1.1,0.2,1.5,0.6
				c-1.6-2.5-18.7-7.4-21.1-7.9C253.8,320.1,253.6,320.1,253.4,320.1L253.4,320.1z"/>
		</g>
	</g>
	<g>
		<path class="st5" d="M243.3,370.2c-0.3,0-0.5,0-0.6-0.1l-1.5-31.5c0-0.1,0-0.2,0.1-0.4c2-3.8,32-10.8,32.3-10.8
			c0.5,0,1.1,0.2,1.5,0.6c0.4,0.4,0.7,1,0.7,1.6l-4.6,27.8c0,1.2-1.1,1.7-2.2,2.2C268.7,359.6,247.8,370.2,243.3,370.2z"/>
		<g>
			<path d="M273.5,327.5c0.5,0,1,0.2,1.4,0.6c0.4,0.4,0.7,0.9,0.7,1.5l-4.6,27.8c0,1.2-1.1,1.7-2.1,2.1c-0.2,0.1-21,10.7-25.6,10.7
				c-0.2,0-0.4,0-0.5-0.1l-1.5-31.5c0-0.1,0-0.2,0.1-0.3C243.3,334.5,272.8,327.7,273.5,327.5 M273.5,327.4c0,0-30.3,7-32.3,10.9
				c-0.1,0.1-0.1,0.3-0.1,0.4l1.5,31.5c0.2,0.1,0.4,0.1,0.6,0.1c4.6,0,25.6-10.7,25.6-10.7c1.1-0.4,2.2-1,2.2-2.2l4.6-27.8
				c0-0.6-0.3-1.2-0.7-1.6C274.6,327.6,274.1,327.4,273.5,327.4L273.5,327.4z"/>
		</g>
	</g>
	<g>
		<path class="st5" d="M242.6,370c-0.5-0.3-3.2-2.6-11.4-14.5l-0.3-0.4c-1.3-1.9-2.5-3.6-2.4-4.2c0-0.2-4-21.4-4.2-23.2
			c-0.2-1.5,0-2.4,0.5-2.5c0,0,0,0,0.1,0c0.2,0,0.3,0,0.5,0.1c0.9,0.5,14.2,9.6,15.5,12.9c0.1,0.2,0.1,0.4,0.1,0.5L242.6,370z"/>
		<g>
			<path d="M225,325.3c0.1,0,0.3,0,0.4,0.1c0.8,0.5,14.1,9.6,15.5,12.9c0.1,0.2,0.1,0.4,0.1,0.5l1.5,31.1
				c-0.7-0.5-3.5-3.1-11.3-14.4l-0.3-0.4c-1.2-1.8-2.5-3.6-2.4-4.2l0,0l0,0c0-0.2-4-21.4-4.2-23.1
				C224.3,326.4,224.4,325.4,225,325.3C224.9,325.3,224.9,325.3,225,325.3 M225,325.2c0,0-0.1,0-0.1,0c-0.6,0.1-0.7,1.2-0.5,2.6
				c0.2,1.8,4.2,23.2,4.2,23.2c-0.1,0.7,1.2,2.6,2.6,4.6c9.3,13.5,11.5,14.6,11.5,14.6l-1.5-31.3c0-0.2,0-0.3-0.1-0.5
				c-1.4-3.3-14.5-12.3-15.5-12.9C225.3,325.3,225.1,325.2,225,325.2L225,325.2z"/>
		</g>
	</g>
	<path d="M266.3,338.5c-0.5,0.9-0.6,1.9-0.2,2.4c0.5,0.7,1.7,0.7,2.8-0.5c1.6-1.6,1.6-3.7,0.2-3.8
		C268,336.5,266.8,337.5,266.3,338.5z"/>
	<path d="M264.9,354.2c-0.4,0.8-0.5,1.6-0.2,2c0.4,0.6,1.4,0.6,2.4-0.4c1.3-1.4,1.4-3.1,0.1-3.3
		C266.4,352.4,265.4,353.3,264.9,354.2z"/>
	<path d="M250.2,360.9c-0.4,0.8-0.5,1.7-0.2,2.2c0.4,0.6,1.5,0.6,2.6-0.5c1.5-1.5,1.5-3.4,0.1-3.6
		C251.9,358.9,250.8,359.9,250.2,360.9z"/>
	<path d="M250.1,343.9c-0.5,0.9-0.5,1.9,0,2.5c0.6,0.8,1.9,0.8,3.1-0.3c1.6-1.6,1.5-3.7-0.2-4.1
		C251.9,341.9,250.7,342.8,250.1,343.9z"/>
	<path d="M258.3,349.5c-0.4,0.8-0.4,1.7,0,2.2c0.5,0.7,1.7,0.7,2.7-0.2c1.4-1.4,1.3-3.3-0.1-3.6
		C259.9,347.7,258.8,348.5,258.3,349.5z"/>
	<ellipse cx="248.3" cy="325" rx="2.6" ry="0.7"/>
	<ellipse transform="matrix(0.9341 -0.357 0.357 0.9341 -104.8307 103.5344)" cx="228" cy="335.7" rx="0.9" ry="2.2"/>
	<ellipse transform="matrix(0.9341 -0.357 0.357 0.9341 -108.6338 105.8647)" cx="232.4" cy="347.2" rx="0.9" ry="2.2"/>
	<ellipse transform="matrix(0.9341 -0.357 0.357 0.9341 -112.7161 108.4605)" cx="237.4" cy="359.5" rx="1" ry="2.4"/>
</g>
</svg>
