<?xml version="1.0" encoding="utf-8"?>
<!-- Generator: Adobe Illustrator 22.0.0, SVG Export Plug-In . SVG Version: 6.00 Build 0)  -->
<svg version="1.1" id="Calque_1" xmlns="http://www.w3.org/2000/svg" xmlns:xlink="http://www.w3.org/1999/xlink" x="0px" y="0px"
	 viewBox="0 0 500 500" style="enable-background:new 0 0 500 500;" xml:space="preserve">
<style type="text/css">
	.st0{fill:#02BCC1;}
	.st1{fill:#553B49;}
	.st2{font-family:'Mono45Headline-Regular';}
	.st3{font-size:106.4137px;}
	.st4{fill:none;stroke:#02BCC1;stroke-width:4.5563;stroke-miterlimit:10;}
	.st5{fill:none;}
	.st6{fill:#E0E0E0;}
</style>
<g id="hexagone">
	<g>
		<g>
			<path class="st0" d="M361.3,57.3L472.6,250L361.3,442.7H138.7L27.4,250L138.7,57.3H361.3 M363.9,52.7H136.1L22.2,250l113.9,197.3
				h227.8L477.8,250L363.9,52.7L363.9,52.7z"/>
		</g>
	</g>
	<g>
		<polygon class="st1" points="52.7,136.1 52.7,363.9 250,477.8 447.3,363.9 447.3,136.1 250,22.2 		"/>
	</g>
</g>
<text transform="matrix(1 0 0 1 90.5312 280.8809)" class="st0 st2 st3">Playpal</text>
<line class="st4" x1="418.6" y1="313.8" x2="95.1" y2="313.8"/>
<g id="De">
	<path class="st5" d="M246,375.8l0.2-0.1c-0.1,0.1-0.1,0.3-0.1,0.4l1.6,32.6l-1.6-32.3C246.1,376.2,246.1,376,246,375.8z"/>
	<g>
		<path class="st6" d="M246,375.7c-1.5-3.5-15.2-12.8-16.1-13.3c-0.2-0.1-0.4-0.2-0.5-0.2c1.4-1.9,9.7-2.9,16.3-3.8l2.8-0.4
			c4.6-0.6,8.6-1.1,10.2-1.1c0.2,0,0.4,0,0.5,0c2.5,0.5,18.4,5.1,21.4,7.7c-0.3-0.2-0.7-0.3-1.1-0.3c-1.3,0.3-31.4,7.3-33.4,11.2
			L246,375.7z"/>
		<g>
			<path d="M258.8,357c0.2,0,0.4,0,0.5,0c2.4,0.4,17.3,4.8,21,7.4c-0.2-0.1-0.5-0.1-0.7-0.1c0,0,0,0,0,0
				c-1.3,0.3-31.2,7.2-33.4,11.2l-0.1,0c-1.6-3.5-15.2-12.8-16.1-13.3c-0.2-0.1-0.3-0.1-0.4-0.2c1.6-1.8,10-2.9,16.2-3.7
				c1-0.1,1.9-0.2,2.8-0.4C253.2,357.6,257.2,357,258.8,357 M258.8,356.9c-1.9,0-7.3,0.7-13,1.5c-7.3,0.9-15.3,2-16.4,3.9
				c0,0,0.1,0,0.1,0c0.1,0,0.3,0,0.5,0.2c1.1,0.6,14.7,10,16.1,13.3l0.2-0.1c2.1-4,33.4-11.2,33.4-11.2c0.6,0,1.1,0.2,1.6,0.6
				c-1.6-2.5-19.3-7.7-21.8-8.1C259.2,356.9,259,356.9,258.8,356.9L258.8,356.9z"/>
		</g>
	</g>
	<g>
		<path class="st6" d="M248.3,408.7c-0.3,0-0.5,0-0.6-0.1l-1.6-32.5c0-0.1,0-0.2,0.1-0.4c2-3.9,33-11.1,33.3-11.2
			c0.5,0,1.1,0.2,1.5,0.6c0.4,0.4,0.7,1,0.7,1.6l-4.8,28.7c0,1.2-1.1,1.8-2.2,2.2C274.5,397.8,253,408.7,248.3,408.7z"/>
		<g>
			<path d="M279.6,364.6c0.5,0,1.1,0.2,1.5,0.6c0.4,0.4,0.7,1,0.7,1.6l-4.8,28.7c0,1.2-1.1,1.7-2.2,2.2c-0.2,0.1-21.7,11-26.4,11
				c-0.2,0-0.4,0-0.5-0.1l-1.6-32.5c0-0.1,0-0.2,0.1-0.3C248.3,371.9,278.8,364.8,279.6,364.6 M279.6,364.5c0,0-31.3,7.2-33.4,11.2
				c-0.1,0.1-0.1,0.3-0.1,0.4l1.6,32.6c0.2,0.1,0.4,0.1,0.6,0.1c4.8,0,26.5-11,26.5-11c1.1-0.5,2.3-1,2.3-2.3l4.8-28.7
				c0-0.7-0.3-1.2-0.7-1.7C280.7,364.7,280.2,364.5,279.6,364.5L279.6,364.5z"/>
		</g>
	</g>
	<g>
		<path class="st6" d="M247.6,408.6c-0.5-0.4-3.3-2.7-11.7-15l-0.3-0.4c-1.3-1.9-2.6-3.7-2.4-4.3c0-0.2-4.1-22.1-4.3-23.9
			c-0.2-1.5,0-2.5,0.5-2.6c0,0,0,0,0.1,0c0.2,0,0.3,0.1,0.5,0.1c0.9,0.5,14.6,9.9,16,13.3c0.1,0.2,0.1,0.4,0.1,0.5L247.6,408.6z"/>
		<g>
			<path d="M229.4,362.4c0.1,0,0.3,0,0.4,0.1c0.9,0.5,14.6,9.9,16,13.3c0.1,0.2,0.1,0.4,0.1,0.5l1.6,32.1
				c-0.7-0.5-3.6-3.2-11.6-14.9l-0.3-0.4c-1.3-1.8-2.6-3.7-2.4-4.3l0,0l0,0c0-0.2-4.1-22.1-4.3-23.9
				C228.7,363.4,228.9,362.5,229.4,362.4C229.4,362.4,229.4,362.4,229.4,362.4 M229.4,362.3c0,0-0.1,0-0.1,0
				c-0.6,0.1-0.7,1.2-0.5,2.7c0.2,1.8,4.3,23.9,4.3,23.9c-0.1,0.7,1.3,2.7,2.7,4.8c9.6,13.9,11.8,15,11.8,15l-1.6-32.3
				c0-0.2,0-0.3-0.1-0.6c-1.4-3.4-15-12.7-16.1-13.3C229.7,362.3,229.6,362.3,229.4,362.3L229.4,362.3z"/>
		</g>
	</g>
	<path d="M272.1,376c-0.5,0.9-0.6,1.9-0.2,2.5c0.5,0.7,1.7,0.7,2.9-0.5c1.6-1.6,1.7-3.8,0.2-4C273.9,373.9,272.7,374.9,272.1,376z"
		/>
	<path d="M270.7,392.2c-0.4,0.8-0.5,1.6-0.2,2.1c0.4,0.6,1.5,0.6,2.4-0.4c1.4-1.4,1.4-3.2,0.1-3.4
		C272.3,390.4,271.2,391.2,270.7,392.2z"/>
	<path d="M255.5,399.1c-0.5,0.9-0.5,1.8-0.2,2.3c0.5,0.7,1.6,0.6,2.7-0.5c1.5-1.5,1.5-3.5,0.1-3.7
		C257.2,397.1,256.1,398,255.5,399.1z"/>
	<path d="M255.4,381.6c-0.5,0.9-0.5,2,0,2.6c0.6,0.8,2,0.9,3.2-0.3c1.7-1.6,1.5-3.9-0.2-4.2C257.2,379.5,256,380.4,255.4,381.6z"/>
	<path d="M263.8,387.3c-0.4,0.8-0.4,1.8,0,2.3c0.5,0.7,1.7,0.8,2.8-0.3c1.5-1.4,1.3-3.4-0.1-3.7
		C265.5,385.5,264.3,386.4,263.8,387.3z"/>
	<ellipse cx="253.5" cy="362" rx="2.7" ry="0.7"/>
	<ellipse transform="matrix(0.9341 -0.357 0.357 0.9341 -117.8772 107.6213)" cx="232.6" cy="373.1" rx="1" ry="2.3"/>
	<ellipse transform="matrix(0.9341 -0.357 0.357 0.9341 -121.8065 110.0288)" cx="237.1" cy="384.9" rx="1" ry="2.3"/>
	<ellipse transform="matrix(0.9341 -0.357 0.357 0.9341 -126.0241 112.7107)" cx="242.3" cy="397.7" rx="1.1" ry="2.5"/>
</g>
</svg>
